<?xml version="1.0" encoding="utf-8"?>
<!-- Generator: Adobe Illustrator 16.0.0, SVG Export Plug-In . SVG Version: 6.00 Build 0)  -->
<!DOCTYPE svg PUBLIC "-//W3C//DTD SVG 1.1//EN" "http://www.w3.org/Graphics/SVG/1.1/DTD/svg11.dtd">
<svg version="1.1" id="Layer_1" xmlns="http://www.w3.org/2000/svg" xmlns:xlink="http://www.w3.org/1999/xlink" x="0px" y="0px"
	 width="178.827px" height="48.24px" viewBox="0 0 178.827 48.24" enable-background="new 0 0 178.827 48.24" xml:space="preserve">
<g>
	<polygon fill="#D14D28" points="20.313,0 0,11.898 0,36.119 20.313,48.24 40.222,36.119 40.222,11.898 	"/>
	<polygon opacity="0.56" fill="#FAA759" points="20.313,0 0,11.898 20.313,23.889 40.222,11.898 	"/>
	<rect y="11.898" fill="#4E3C39" width="40.222" height="4.734"/>
	<path fill="#3A2C28" d="M40.222,17.624L9.976,35.812l10.337,6.318l14.976-9.305v-5.544l4.933-2.983v11.82L20.309,48.24L0,36.119
		l40.222-24.221V17.624z"/>
	<polyline opacity="0.16" fill="#F08743" points="20.313,23.889 20.313,48.24 0,36.119 0,11.898 	"/>
	<polygon fill="#3A2C28" points="0,11.898 8.018,16.632 0,21.17 	"/>
	<g>
		<path fill="#071929" d="M49.436,26.779l7.088-10.367v-0.057h-6.481v-1.384h8.623v1.004l-7.05,10.329v0.057h7.145v1.383h-9.324
			V26.779z"/>
		<path fill="#071929" d="M71.131,21.226c0,4.396-2.672,6.728-5.932,6.728c-3.373,0-5.742-2.615-5.742-6.481
			c0-4.056,2.521-6.709,5.932-6.709C68.876,14.763,71.131,17.436,71.131,21.226z M61.22,21.434c0,2.729,1.478,5.174,4.075,5.174
			c2.615,0,4.093-2.407,4.093-5.306c0-2.54-1.327-5.193-4.075-5.193C62.584,16.109,61.22,18.629,61.22,21.434z"/>
		<path fill="#071929" d="M72.113,27.745v-1.023l1.308-1.27c3.146-2.995,4.567-4.586,4.586-6.444c0-1.25-0.606-2.407-2.445-2.407
			c-1.118,0-2.046,0.569-2.615,1.042l-0.53-1.175c0.853-0.72,2.065-1.251,3.487-1.251c2.653,0,3.771,1.819,3.771,3.582
			c0,2.274-1.649,4.112-4.245,6.614l-0.985,0.91v0.038h5.534v1.383H72.113z"/>
		<path fill="#071929" d="M81.85,14.972h6.879v1.384h-5.231v4.245h4.833v1.364h-4.833v5.78H81.85V14.972z"/>
		<path fill="#071929" d="M90.451,21.434c0-1.08-0.019-2.009-0.076-2.861h1.459l0.057,1.8h0.076c0.417-1.232,1.421-2.009,2.54-2.009
			c0.189,0,0.322,0.019,0.474,0.057v1.573c-0.17-0.038-0.341-0.057-0.568-0.057c-1.175,0-2.009,0.891-2.236,2.142
			c-0.038,0.228-0.076,0.493-0.076,0.777v4.89h-1.649V21.434z"/>
		<path fill="#071929" d="M101.156,27.745l-0.133-1.156h-0.057c-0.512,0.72-1.497,1.365-2.805,1.365
			c-1.857,0-2.805-1.308-2.805-2.634c0-2.217,1.971-3.43,5.515-3.411v-0.189c0-0.758-0.208-2.123-2.084-2.123
			c-0.853,0-1.744,0.265-2.388,0.682l-0.379-1.099c0.758-0.493,1.857-0.815,3.013-0.815c2.805,0,3.487,1.914,3.487,3.752v3.43
			c0,0.796,0.038,1.573,0.151,2.198H101.156z M100.91,23.064c-1.819-0.038-3.885,0.284-3.885,2.066c0,1.08,0.72,1.592,1.573,1.592
			c1.194,0,1.952-0.758,2.217-1.535c0.057-0.17,0.095-0.36,0.095-0.53V23.064z"/>
		<path fill="#071929" d="M104.64,21.055c0-0.947-0.019-1.725-0.076-2.482h1.459l0.076,1.478h0.057
			c0.512-0.872,1.365-1.687,2.881-1.687c1.25,0,2.198,0.758,2.596,1.838h0.038c0.284-0.512,0.644-0.91,1.023-1.194
			c0.549-0.417,1.156-0.644,2.028-0.644c1.213,0,3.013,0.796,3.013,3.979v5.401h-1.63v-5.193c0-1.762-0.645-2.824-1.99-2.824
			c-0.948,0-1.687,0.701-1.971,1.516c-0.076,0.228-0.133,0.531-0.133,0.834v5.667h-1.63v-5.496c0-1.459-0.644-2.521-1.914-2.521
			c-1.042,0-1.8,0.834-2.065,1.668c-0.095,0.246-0.133,0.531-0.133,0.815v5.534h-1.63V21.055z"/>
		<path fill="#071929" d="M120.8,23.462c0.038,2.255,1.479,3.184,3.146,3.184c1.194,0,1.914-0.208,2.54-0.474l0.284,1.194
			c-0.587,0.265-1.592,0.568-3.051,0.568c-2.824,0-4.51-1.857-4.51-4.624s1.63-4.946,4.302-4.946c2.995,0,3.791,2.634,3.791,4.321
			c0,0.341-0.038,0.606-0.057,0.777H120.8z M125.69,22.268c0.019-1.061-0.436-2.71-2.312-2.71c-1.687,0-2.426,1.554-2.559,2.71
			H125.69z"/>
		<path fill="#071929" d="M129.458,18.573l1.213,4.662c0.265,1.023,0.512,1.971,0.682,2.918h0.057
			c0.208-0.929,0.512-1.914,0.815-2.9l1.498-4.681h1.402l1.421,4.586c0.342,1.1,0.606,2.066,0.815,2.995h0.057
			c0.151-0.929,0.398-1.895,0.701-2.976l1.308-4.605h1.648l-2.956,9.172h-1.516l-1.403-4.378c-0.321-1.023-0.587-1.933-0.814-3.013
			h-0.038c-0.227,1.099-0.512,2.047-0.833,3.032l-1.479,4.359h-1.516l-2.767-9.172H129.458z"/>
		<path fill="#071929" d="M150.47,23.083c0,3.393-2.351,4.871-4.567,4.871c-2.483,0-4.397-1.819-4.397-4.719
			c0-3.07,2.01-4.871,4.549-4.871C148.688,18.364,150.47,20.278,150.47,23.083z M143.193,23.178c0,2.009,1.155,3.525,2.785,3.525
			c1.592,0,2.786-1.497,2.786-3.562c0-1.554-0.777-3.525-2.748-3.525S143.193,21.434,143.193,23.178z"/>
		<path fill="#071929" d="M152.001,21.434c0-1.08-0.02-2.009-0.076-2.861h1.459l0.058,1.8h0.075c0.417-1.232,1.422-2.009,2.54-2.009
			c0.189,0,0.321,0.019,0.474,0.057v1.573c-0.171-0.038-0.342-0.057-0.568-0.057c-1.176,0-2.01,0.891-2.236,2.142
			c-0.038,0.228-0.076,0.493-0.076,0.777v4.89h-1.648V21.434z"/>
		<path fill="#071929" d="M159.277,22.78h0.038c0.228-0.322,0.55-0.72,0.814-1.042l2.691-3.165h2.009l-3.544,3.771l4.037,5.401
			h-2.028l-3.165-4.397l-0.853,0.948v3.449h-1.648V14.29h1.648V22.78z"/>
	</g>
	<g>
	</g>
	<g>
		<path fill="#646565" d="M48.833,30.634c0.296-0.049,0.685-0.092,1.18-0.092c0.607,0,1.053,0.141,1.335,0.396
			c0.262,0.226,0.417,0.572,0.417,0.996c0,0.431-0.127,0.771-0.367,1.018c-0.325,0.346-0.855,0.522-1.456,0.522
			c-0.184,0-0.353-0.007-0.495-0.042v1.907h-0.614V30.634z M49.447,32.93c0.134,0.035,0.304,0.05,0.509,0.05
			c0.742,0,1.194-0.36,1.194-1.018c0-0.629-0.445-0.933-1.123-0.933c-0.269,0-0.474,0.021-0.58,0.049V32.93z"/>
		<path fill="#646565" d="M56.658,32.909c0,1.64-0.996,2.509-2.211,2.509c-1.258,0-2.141-0.976-2.141-2.417
			c0-1.511,0.939-2.5,2.211-2.5C55.817,30.5,56.658,31.496,56.658,32.909z M52.963,32.987c0,1.018,0.551,1.929,1.519,1.929
			c0.975,0,1.526-0.897,1.526-1.979c0-0.946-0.495-1.936-1.519-1.936C53.472,31.001,52.963,31.941,52.963,32.987z"/>
		<path fill="#646565" d="M58.231,35.339l-1.208-4.762h0.65l0.565,2.409c0.141,0.594,0.268,1.187,0.353,1.646h0.014
			c0.078-0.474,0.226-1.039,0.389-1.653l0.636-2.402h0.643l0.579,2.416c0.134,0.565,0.261,1.131,0.332,1.632h0.014
			c0.099-0.522,0.233-1.053,0.381-1.646l0.629-2.402h0.629l-1.35,4.762h-0.643l-0.601-2.479c-0.148-0.608-0.248-1.074-0.311-1.555
			h-0.014c-0.084,0.474-0.19,0.94-0.367,1.555l-0.678,2.479H58.231z"/>
		<path fill="#646565" d="M65.893,33.107h-1.851v1.717h2.063v0.516h-2.677v-4.762h2.571v0.516h-1.957v1.505h1.851V33.107z"/>
		<path fill="#646565" d="M66.902,30.641c0.311-0.063,0.756-0.099,1.18-0.099c0.657,0,1.081,0.12,1.377,0.389
			c0.24,0.212,0.375,0.537,0.375,0.904c0,0.628-0.396,1.045-0.897,1.215v0.021c0.367,0.127,0.586,0.466,0.699,0.961
			c0.155,0.664,0.269,1.123,0.367,1.307h-0.636c-0.078-0.134-0.184-0.544-0.318-1.138c-0.141-0.657-0.396-0.904-0.954-0.925h-0.58
			v2.062h-0.614V30.641z M67.516,32.81h0.629c0.657,0,1.074-0.36,1.074-0.904c0-0.615-0.445-0.883-1.095-0.89
			c-0.297,0-0.509,0.028-0.608,0.057V32.81z"/>
		<path fill="#646565" d="M70.701,30.578h2.564v0.516h-1.95v1.583h1.802v0.509h-1.802v2.154h-0.614V30.578z"/>
		<path fill="#646565" d="M74.754,30.578v2.819c0,1.066,0.474,1.519,1.109,1.519c0.707,0,1.159-0.467,1.159-1.519v-2.819h0.622
			v2.776c0,1.463-0.77,2.063-1.801,2.063c-0.975,0-1.71-0.559-1.71-2.035v-2.805H74.754z"/>
		<path fill="#646565" d="M78.708,30.578h0.614v4.246h2.035v0.516h-2.649V30.578z"/>
		<path fill="#646565" d="M81.617,36.208c0.156-0.417,0.346-1.173,0.424-1.688l0.692-0.071c-0.163,0.601-0.474,1.385-0.671,1.717
			L81.617,36.208z"/>
		<path fill="#646565" d="M83.502,30.578h2.564v0.516h-1.95v1.583h1.802v0.509h-1.802v2.154h-0.614V30.578z"/>
		<path fill="#646565" d="M86.941,30.578h0.614v4.246h2.035v0.516h-2.649V30.578z"/>
		<path fill="#646565" d="M92.739,33.107h-1.851v1.717h2.063v0.516h-2.677v-4.762h2.571v0.516h-1.957v1.505h1.851V33.107z"/>
		<path fill="#646565" d="M96.355,35.339l-0.608-1.053c-0.247-0.402-0.402-0.664-0.551-0.939h-0.014
			c-0.134,0.275-0.269,0.529-0.516,0.946l-0.572,1.046h-0.707l1.455-2.409l-1.399-2.353h0.714l0.629,1.116
			c0.176,0.311,0.311,0.551,0.438,0.806h0.021c0.134-0.283,0.254-0.502,0.431-0.806l0.65-1.116h0.707l-1.449,2.317l1.484,2.444
			H96.355z"/>
		<path fill="#646565" d="M98.395,30.578v4.762H97.78v-4.762H98.395z"/>
		<path fill="#646565" d="M99.468,30.641c0.268-0.056,0.692-0.099,1.123-0.099c0.615,0,1.01,0.106,1.307,0.346
			c0.247,0.184,0.396,0.466,0.396,0.84c0,0.459-0.304,0.862-0.805,1.046v0.014c0.452,0.113,0.982,0.488,0.982,1.194
			c0,0.41-0.163,0.721-0.403,0.954c-0.332,0.304-0.869,0.444-1.646,0.444c-0.424,0-0.749-0.028-0.954-0.056V30.641z M100.082,32.591
			h0.558c0.65,0,1.032-0.339,1.032-0.798c0-0.558-0.424-0.777-1.045-0.777c-0.283,0-0.445,0.021-0.544,0.042V32.591z
			 M100.082,34.874c0.12,0.021,0.297,0.027,0.516,0.027c0.636,0,1.222-0.232,1.222-0.925c0-0.65-0.558-0.919-1.229-0.919h-0.509
			V34.874z"/>
		<path fill="#646565" d="M103.295,30.578h0.614v4.246h2.035v0.516h-2.649V30.578z"/>
		<path fill="#646565" d="M109.093,33.107h-1.851v1.717h2.063v0.516h-2.677v-4.762h2.571v0.516h-1.957v1.505h1.851V33.107z"/>
		<path fill="#646565" d="M109.649,36.208c0.156-0.417,0.346-1.173,0.424-1.688l0.692-0.071c-0.163,0.601-0.474,1.385-0.671,1.717
			L109.649,36.208z"/>
		<path fill="#646565" d="M111.535,30.578h2.564v0.516h-1.95v1.583h1.802v0.509h-1.802v2.154h-0.614V30.578z"/>
		<path fill="#646565" d="M114.974,30.641c0.311-0.063,0.756-0.099,1.18-0.099c0.657,0,1.081,0.12,1.377,0.389
			c0.24,0.212,0.375,0.537,0.375,0.904c0,0.628-0.396,1.045-0.897,1.215v0.021c0.367,0.127,0.586,0.466,0.699,0.961
			c0.155,0.664,0.269,1.123,0.367,1.307h-0.636c-0.078-0.134-0.184-0.544-0.318-1.138c-0.141-0.657-0.396-0.904-0.954-0.925h-0.58
			v2.062h-0.614V30.641z M115.588,32.81h0.629c0.657,0,1.074-0.36,1.074-0.904c0-0.615-0.445-0.883-1.095-0.89
			c-0.297,0-0.509,0.028-0.608,0.057V32.81z"/>
		<path fill="#646565" d="M119.387,30.578v4.762h-0.614v-4.762H119.387z"/>
		<path fill="#646565" d="M122.926,33.107h-1.851v1.717h2.063v0.516h-2.677v-4.762h2.571v0.516h-1.957v1.505h1.851V33.107z"/>
		<path fill="#646565" d="M123.935,35.339v-4.762h0.671l1.526,2.409c0.354,0.558,0.629,1.06,0.855,1.547L127,34.527
			c-0.057-0.636-0.071-1.215-0.071-1.957v-1.992h0.58v4.762h-0.622l-1.512-2.416c-0.332-0.53-0.65-1.074-0.89-1.59l-0.021,0.007
			c0.035,0.601,0.049,1.172,0.049,1.963v2.035H123.935z"/>
		<path fill="#646565" d="M128.581,30.641c0.374-0.056,0.819-0.099,1.307-0.099c0.883,0,1.512,0.205,1.929,0.593
			c0.424,0.389,0.671,0.939,0.671,1.709c0,0.777-0.24,1.413-0.686,1.852c-0.445,0.444-1.18,0.685-2.105,0.685
			c-0.438,0-0.806-0.021-1.116-0.056V30.641z M129.195,34.852c0.156,0.028,0.382,0.035,0.622,0.035c1.314,0,2.027-0.734,2.027-2.021
			c0.007-1.124-0.629-1.837-1.929-1.837c-0.318,0-0.558,0.028-0.721,0.063V34.852z"/>
		<path fill="#646565" d="M133.283,30.578h0.614v4.246h2.035v0.516h-2.649V30.578z"/>
		<path fill="#646565" d="M137.083,35.339v-2.021l-1.505-2.741h0.699l0.672,1.314c0.184,0.36,0.324,0.65,0.473,0.982h0.015
			c0.134-0.311,0.297-0.622,0.48-0.982l0.685-1.314h0.7l-1.597,2.734v2.027H137.083z"/>
		<path fill="#646565" d="M144.321,35.339c-0.135-0.134-0.262-0.269-0.445-0.466c-0.41,0.381-0.869,0.544-1.392,0.544
			c-0.926,0-1.463-0.622-1.463-1.336c0-0.649,0.389-1.095,0.933-1.392v-0.021c-0.247-0.311-0.396-0.657-0.396-0.996
			c0-0.58,0.417-1.173,1.208-1.173c0.594,0,1.053,0.396,1.053,1.01c0,0.501-0.29,0.897-1.046,1.271v0.021
			c0.403,0.466,0.855,0.989,1.159,1.328c0.219-0.332,0.367-0.791,0.459-1.392h0.565c-0.127,0.749-0.332,1.342-0.686,1.759
			c0.255,0.269,0.502,0.537,0.784,0.841H144.321z M143.572,34.52c-0.283-0.312-0.812-0.891-1.343-1.498
			c-0.254,0.163-0.614,0.467-0.614,0.968c0,0.544,0.402,0.961,0.975,0.961C143,34.951,143.345,34.767,143.572,34.52z
			 M142.124,31.616c0,0.339,0.155,0.601,0.36,0.855c0.48-0.276,0.791-0.53,0.791-0.933c0-0.29-0.162-0.615-0.551-0.615
			C142.329,30.924,142.124,31.249,142.124,31.616z"/>
		<path fill="#646565" d="M147.109,30.641c0.311-0.063,0.756-0.099,1.18-0.099c0.657,0,1.081,0.12,1.378,0.389
			c0.24,0.212,0.374,0.537,0.374,0.904c0,0.628-0.396,1.045-0.897,1.215v0.021c0.368,0.127,0.587,0.466,0.7,0.961
			c0.155,0.664,0.268,1.123,0.367,1.307h-0.636c-0.078-0.134-0.184-0.544-0.318-1.138c-0.142-0.657-0.396-0.904-0.954-0.925h-0.579
			v2.062h-0.614V30.641z M147.723,32.81h0.629c0.657,0,1.074-0.36,1.074-0.904c0-0.615-0.445-0.883-1.096-0.89
			c-0.296,0-0.509,0.028-0.607,0.057V32.81z"/>
		<path fill="#646565" d="M153.374,33.107h-1.852v1.717h2.063v0.516h-2.678v-4.762h2.571v0.516h-1.957v1.505h1.852V33.107z"/>
		<path fill="#646565" d="M154.381,30.634c0.297-0.049,0.686-0.092,1.18-0.092c0.607,0,1.053,0.141,1.335,0.396
			c0.262,0.226,0.417,0.572,0.417,0.996c0,0.431-0.127,0.771-0.367,1.018c-0.325,0.346-0.854,0.522-1.455,0.522
			c-0.184,0-0.354-0.007-0.495-0.042v1.907h-0.614V30.634z M154.996,32.93c0.135,0.035,0.304,0.05,0.509,0.05
			c0.742,0,1.194-0.36,1.194-1.018c0-0.629-0.445-0.933-1.124-0.933c-0.268,0-0.473,0.021-0.579,0.049V32.93z"/>
		<path fill="#646565" d="M158.138,30.578h0.614v4.246h2.035v0.516h-2.649V30.578z"/>
		<path fill="#646565" d="M163.937,33.107h-1.852v1.717h2.063v0.516h-2.678v-4.762h2.571v0.516h-1.957v1.505h1.852V33.107z"/>
		<path fill="#646565" d="M164.945,35.339v-4.762h0.671l1.526,2.409c0.353,0.558,0.629,1.06,0.854,1.547l0.015-0.007
			c-0.057-0.636-0.071-1.215-0.071-1.957v-1.992h0.579v4.762h-0.621l-1.512-2.416c-0.332-0.53-0.65-1.074-0.891-1.59l-0.021,0.007
			c0.036,0.601,0.05,1.172,0.05,1.963v2.035H164.945z"/>
		<path fill="#646565" d="M170.206,30.578v4.762h-0.614v-4.762H170.206z"/>
		<path fill="#646565" d="M171.194,34.59c0.275,0.17,0.679,0.311,1.103,0.311c0.628,0,0.996-0.332,0.996-0.812
			c0-0.445-0.255-0.7-0.897-0.947c-0.777-0.275-1.258-0.678-1.258-1.349c0-0.742,0.615-1.293,1.54-1.293
			c0.487,0,0.841,0.113,1.053,0.233l-0.169,0.502c-0.156-0.085-0.474-0.226-0.904-0.226c-0.65,0-0.897,0.388-0.897,0.713
			c0,0.445,0.289,0.664,0.946,0.918c0.806,0.312,1.215,0.7,1.215,1.399c0,0.734-0.544,1.37-1.667,1.37
			c-0.459,0-0.961-0.134-1.215-0.304L171.194,34.59z"/>
		<path fill="#646565" d="M175.375,30.578v1.992h2.304v-1.992h0.621v4.762h-0.621v-2.232h-2.304v2.232h-0.614v-4.762H175.375z"/>
	</g>
</g>
<g>
</g>
<g>
</g>
<g>
</g>
<g>
</g>
<g>
</g>
<g>
</g>
</svg>
